<?xml version="1.0" standalone="no"?>
<!-- Generator: Adobe Fireworks 10, Export SVG Extension by Aaron Beall (http://fireworks.abeall.com) . Version: 0.6.1  -->
<!DOCTYPE svg PUBLIC "-//W3C//DTD SVG 1.1//EN" "http://www.w3.org/Graphics/SVG/1.1/DTD/svg11.dtd">
<svg id="icons_oblique_viewer_export-Page%201" viewBox="0 0 15 15" style="background-color:#ffffff" version="1.1"
	xmlns="http://www.w3.org/2000/svg" xmlns:xlink="http://www.w3.org/1999/xlink" xml:space="preserve"
	x="0px" y="0px" width="15px" height="15px"
>
	<path id="aerial-straight" d="M 1 1 L 14 1 L 14 14 L 1 14 L 1 1 ZM 0 0 L 0 15 L 15 15 L 15 0 L 0 0 ZM 8 8 L 8 13 L 13 13 L 13 8 L 8 8 ZM 8 2 L 8 7 L 13 7 L 13 2 L 8 2 ZM 2 8 L 2 13 L 7 13 L 7 8 L 2 8 ZM 2 2 L 2 7 L 7 7 L 7 2 L 2 2 Z" fill="#333333"/>
</svg>